<svg id="Layer_1" data-name="Layer 1" xmlns="http://www.w3.org/2000/svg" viewBox="0 0 529.1 171.13"><defs><style>.cls-1{isolation:isolate;}</style></defs><g id="LA_SCENE_EST_VIDE" data-name="LA SCENE EST VIDE" class="cls-1"><g class="cls-1"><path d="M41.06,278.5h13V437.38H65.31v9.87H41.06Z" transform="translate(-41.06 -277.5)"/><path d="M75.31,278.5H96.94l6,168.75h-13L88.81,396.5H83.44l-1.13,50.75h-13Zm13.5,108-2-98.12H85.56l-2,98.12Z" transform="translate(-41.06 -277.5)"/><path d="M125.19,434V380.63h13V429.5c0,6.13,1.25,9.13,3.75,9.13s3.87-3,3.87-9.13V408c0-12.62-.12-21.62-.25-27.12a17.36,17.36,0,0,0-6.62-13.13c-7.38-5-11.38-10.75-12.25-17.12s-1.25-16.38-1.25-29.75V292.75c0-10.12,5.5-15.25,16.75-15.25,11,0,16.62,5.25,16.62,15.5v51.75h-13V297.38c0-6.63-1.25-9.88-3.75-9.88s-3.75,3.25-3.75,9.88v20.87q0,17.44.38,25.5A16.88,16.88,0,0,0,145.56,357c7.13,5.25,11.13,10.88,12,17.13s1.38,16.5,1.38,31.12v28.63c0,9.87-5.75,14.75-17,14.75S125.19,443.75,125.19,434Z" transform="translate(-41.06 -277.5)"/><path d="M165.68,432.13V362.38c0-35.75-.12-58.75-.12-69.25,0-4.75,1.12-8.5,3.5-11.13q4.13-4.5,13.12-4.5c11.13,0,16.75,5.25,16.75,15.63v55.5H186.06v-51.5c0-6.38-1.25-9.63-3.75-9.63a3.14,3.14,0,0,0-1.13.25c-1.87.88-2.87,4-2.75,9.38,0,6.37.13,28.12.13,65.25v65.87c0,6.63,1.25,10,3.75,10s3.75-3.37,3.75-10.12V377.25h12.87v54.88c0,10.75-5.62,16.12-16.75,16.12S165.68,442.88,165.68,432.13Z" transform="translate(-41.06 -277.5)"/><path d="M206.18,278.5h22.13v10h-9.13v67h9.13v9.88h-9.13v71.87h9.13v10H206.18Z" transform="translate(-41.06 -277.5)"/><path d="M234.81,278.5h21.25l7.75,158.38h.75l.25-158.38h12.75V447.25h-21.5L248.31,288.5h-.75V447.25H234.81Z" transform="translate(-41.06 -277.5)"/><path d="M285.05,278.5h22.13v10h-9.13v67h9.13v9.88h-9.13v71.87h9.13v10H285.05Z" transform="translate(-41.06 -277.5)"/><path d="M330.8,278.5h22.12v10H343.8v67h9.12v9.88H343.8v71.87h9.12v10H330.8Z" transform="translate(-41.06 -277.5)"/><path d="M359.05,434V380.63h13V429.5c0,6.13,1.25,9.13,3.75,9.13s3.87-3,3.87-9.13V408c0-12.62-.12-21.62-.25-27.12a17.36,17.36,0,0,0-6.62-13.13c-7.38-5-11.38-10.75-12.25-17.12s-1.25-16.38-1.25-29.75V292.75c0-10.12,5.5-15.25,16.75-15.25,11,0,16.62,5.25,16.62,15.5v51.75h-13V297.38c0-6.63-1.25-9.88-3.75-9.88s-3.75,3.25-3.75,9.88v20.87q0,17.44.38,25.5A16.88,16.88,0,0,0,379.42,357c7.13,5.25,11.13,10.88,12,17.13s1.38,16.5,1.38,31.12v28.63c0,9.87-5.75,14.75-17,14.75S359.05,443.75,359.05,434Z" transform="translate(-41.06 -277.5)"/><path d="M404.8,288.5h-8.25v-10h29.5v10h-8.38V447.25H404.8Z" transform="translate(-41.06 -277.5)"/><path d="M446.17,278.5h13.12l4.88,158.88H465l5-158.88h13.13l-7.88,168.75H453.92Z" transform="translate(-41.06 -277.5)"/><path d="M488.79,278.5h13V447.25h-13Z" transform="translate(-41.06 -277.5)"/><path d="M509.29,278.5H528c8.87,0,13.37,5.38,13.37,16V431.25c0,10.63-4.5,16-13.37,16H509.29Zm14.87,158.75c2.88,0,4.38-3.75,4.38-11.37V300c0-7.62-1.5-11.5-4.38-11.5h-2V437.25Z" transform="translate(-41.06 -277.5)"/><path d="M548,278.5h22.12v10H561v67h9.12v9.88H561v71.87h9.12v10H548Z" transform="translate(-41.06 -277.5)"/></g></g></svg>